<svg width="103" height="83" viewBox="0 0 103 83" fill="none" xmlns="http://www.w3.org/2000/svg">
<path d="M78.5601 51.5614L101.935 23.7252H85.252L67.1165 43.6788V23.7252H52.9579V83H67.1165V64.5073L69.3471 62.0743L86.1265 83H103L78.5601 51.5614Z" fill="white"/>
<path d="M37.2468 24.0654H22.7009V35.4046H37.2468V48.382C36.0959 48.6479 34.8909 48.8795 33.6289 49.0768C22.0001 50.8923 14.6074 44.3879 13.824 30.5984C13.1688 19.0477 20.6839 10.9764 33.6289 12.1201C38.7596 12.5747 43.1923 14.0214 46.5596 16.403V4.45198C41.993 1.63291 36.5603 0.0260999 30.5579 0.000368032C11.9808 -0.0796867 -0.405762 12.9092 0.0101629 30.404C0.49161 50.7207 13.5163 61.5339 30.5579 60.8076C38.4747 60.4703 45.1751 58.4918 50.2687 54.9837V49.031V41.0599V24.0654H37.2468V24.0654Z" fill="white"/>
</svg>
